Patient4_TMGait_0pt8_01_right_16_EMG.mot
version=1
nRows=20
nColumns=33
inDegrees=no
endheader
time	1LAddLong	2LGlutMax	3LGlutMed	4LIliopsoas	5LSemiMemb	6LBicFemLong	7LRecFem	8LVastMed	9LVastLat	10LGasMed	11LTibAnt	12lTibPost	13LPeroneusLong	14LSol	15LExtDigLong	16LFlexDigLong	17RAddLong	18RGlutMax	19RGlutMed	20RIliopsoas	21RSemiMemb	22RBicFemLong	23RRecFem	24RVastMed	25RVastLat	26RGasMed	27RTibAnt	28RTibPost	29RPeroneusLong	30RSol	31RExtDigLong	32RFlexDigLong
17.72	0.008392	-0.2385	-0.13016	-0.012512	0.040741	0.035095	0.21133	0.015411	-0.13977	-0.050354	0.04425	0.000153	-0.38208	0.014954	0.051117	-0.017853	-0.089111	-0.19821	1.0732	-0.033722	0.15778	0.033112	0.30838	-0.054779	-0.08606	-0.002289	0.38071	-0.004425	-0.15976	-0.012817	0.001221	-0.014496
17.721	0.021057	-0.22064	-0.066223	-0.02243	0.041809	0.072327	0.10986	0.005798	-0.080719	-0.035858	0.028687	0.00412	-0.011597	-0.019531	-0.040436	-0.012054	-0.080872	-0.21133	1.0596	-0.036011	0.13977	0.050964	0.26642	-0.06958	-0.091095	0.005188	-0.30121	-0.009003	-0.21057	0.092163	0.005188	-0.009766
17.722	0.017853	-0.20721	-0.09491	0.006409	0.007782	0.040588	0.11948	-0.000763	0.001984	-0.004425	0.022583	0.005035	-0.014801	-0.024261	-0.11765	-0.02182	-0.048676	-0.22919	1.1838	-0.007935	0.091858	0.057983	0.31677	-0.059204	-0.080261	0.01709	-0.54504	-0.003204	0.020294	0.034637	0.001984	-0.007172
17.723	0.018463	-0.21286	-0.050964	0.007782	0.028839	-0.029602	0.018768	-0.02594	0.063782	-0.014343	-0.066528	0.005035	0.13382	0.16052	0.058746	-0.020447	0.044556	-0.21744	1.1339	0.036163	0.046692	0.031433	0.36407	-0.082397	-0.067139	0.011139	-0.33814	-0.005493	0.18539	0.044403	0.001526	0.001831
17.724	0.015106	-0.16708	-0.065155	0.001068	0.046692	-0.028534	-0.007172	-0.027771	0.13275	0.12314	0.009155	-0.002747	0.20996	-0.047302	0.032501	-0.017242	0.10635	-0.16983	0.95123	0.005035	0.025635	-0.017853	0.36468	-0.13245	-0.058289	-0.004578	-0.28336	-0.00061	0.070953	0.14648	0.001221	-0.007019
17.725	0.006256	-0.13916	-0.04303	0.002441	0.029449	0.014496	0.083923	-0.01297	0.11017	0.26245	0.023956	0.000916	-0.23773	0.038605	0.079803	-0.012665	0.13092	-0.13382	0.88531	-0.070496	0.048981	-0.045013	0.31158	-0.11032	-0.083466	-0.012512	-0.22873	-0.009308	-0.15976	0.13611	0.001221	-0.002441
17.726	-0.001678	-0.14145	-0.052643	0.009308	0.014496	0.074005	0.16434	-0.007019	0.11108	0.28671	-0.005035	0.004425	-0.35858	-0.018158	-0.014648	-0.021057	0.13626	-0.1329	0.84198	-0.068817	0.23178	-0.080566	0.23987	-0.061798	-0.053101	-0.002899	0.031281	-0.003662	-0.41245	0.005035	-0.002289	-0.000153
17.727	-0.002441	-0.15762	-0.028687	0.018311	0.010681	0.11185	0.15823	-0.002747	0.11093	0.29144	-0.056763	0.007324	-0.1593	-0.052032	-0.03479	-0.018616	0.082397	-0.19012	1.0822	-0.085602	0.39841	-0.005341	0.12878	-0.042725	-0.051422	-0.006256	0.28732	-0.003204	-0.289	-0.02243	-0.001831	-0.001831
17.728	-0.005035	-0.14633	-0.031586	0.019226	-0.007935	0.066833	0.14358	-0.000458	0.068512	0.26886	-0.051422	0.000916	-0.58334	-0.089111	0.040131	-0.019684	-0.009003	-0.20355	1.1005	-0.1828	0.13626	0.048523	0.046539	-0.045166	-0.042114	-0.012665	0.28534	-0.003967	-0.039215	-0.048676	0.000305	-0.004272
17.729	-0.006104	-0.099792	-0.056305	0.016785	-0.078125	0.008087	0.1326	0.003204	0.07782	-0.036621	-0.074768	0.012665	0.41596	-0.11719	0.079498	-0.011139	-0.066681	-0.17105	0.97031	-0.18356	0.056458	0.06958	-0.027313	-0.061798	-0.051422	-0.001221	0.25589	-0.003357	0.46219	-0.085907	0.000763	0.005188
17.73	-0.000458	-0.074005	-0.096741	0.005493	-0.084839	-0.030212	0.065918	-0.001221	0.079956	-0.2182	-0.081329	0.003662	0.20233	-0.057068	-0.002289	-0.015564	-0.059052	-0.16663	0.93445	-0.27161	0.071259	0.054932	-0.082397	-0.082397	-0.025635	-0.005188	0.44769	-0.005188	0.43854	-0.08728	-0.000916	0.007019
17.731	0.00061	-0.10086	-0.091553	0.011597	-0.016174	0.00061	0.064392	0.002594	0.074768	-0.15671	0.070496	0.003204	-0.19348	0.18616	-0.088043	-0.015259	-0.042419	-0.16266	0.92499	-0.13397	0.090637	0.034637	-0.22583	-0.090332	-0.013123	-0.017242	0.39063	-0.007324	0.40787	0.03418	0.00412	-0.011597
17.732	-0.008698	-0.080872	-0.1062	0.01297	0.090179	-0.11261	0.073395	0.007172	0.087738	-0.06897	0.13138	0.012665	-0.26367	0.24216	0.43945	-0.010681	-0.024719	-0.13519	0.83786	0.24521	0.091858	0.044556	-0.082703	-0.084076	-0.036011	-0.016479	0.3685	-0.010529	0.20355	0.14053	-0.005188	-0.011597
17.733	-0.005188	-0.074158	-0.15015	0.016327	0.041199	-0.20279	0.10254	0.007324	0.071564	-0.098267	0.052185	0.004425	0.22812	0.060883	-0.072021	-0.020905	-0.030518	-0.16083	0.62118	0.46066	0.097656	0.028839	0.04837	-0.073853	-0.036316	-0.015869	0.43121	-0.002289	0.26001	0.1796	0.005341	-0.012207
17.734	-0.004578	-0.062866	-0.15488	0.0177	0.040588	-0.1152	0.11917	0.007019	0.03952	-0.098114	0.067596	0.005188	-0.10529	-0.082855	0.17593	-0.014038	-0.036621	-0.11719	0.75028	0.31998	0.11627	0.02533	0.15076	-0.070648	-0.012207	-0.012207	-0.3717	-0.006256	0.3038	0.10117	-0.002441	-0.009766
17.735	0.008392	-0.091705	-0.16708	0.009155	0.033264	-0.007782	0.12558	0.005646	0.042877	-0.063629	0.1088	0.003052	-0.26993	0.053406	-0.036011	0.000305	-0.019531	-0.10437	0.77499	0.11307	0.12787	0.055389	0.22598	-0.09201	-0.02121	-0.009155	-0.42572	-0.003815	0.12817	0.033722	-0.001526	-0.010223
17.736	0.012817	-0.059814	-0.16129	0.002136	-0.013885	0.051117	0.11658	0.001984	0.003662	-0.069122	0.10757	0.006409	-0.37186	0.040436	-0.26306	0.005798	-0.00885	-0.103	0.77713	0.015106	-0.013428	0.091095	0.21072	-0.062103	-0.032501	-0.011139	-0.20783	-0.00473	0.42023	0.019379	-0.002899	-0.006714
17.737	0.017242	-0.055237	-0.047607	-0.009766	-0.079041	-0.021515	0.11307	0.002747	0.031586	0.027313	0.028534	-0.002136	0.20386	0.020294	-0.10635	0.02594	0.015411	-0.11795	0.78033	-0.093384	0.041656	0.081177	0.1033	-0.087891	-0.033875	-0.011597	0.007935	-0.001984	0.16007	0.010529	0.000305	-0.008545
17.738	0.01297	-0.006561	0.09079	-0.005798	-0.046387	-0.073853	0.13016	0.004272	0.072327	0.057678	-0.097809	0.014954	0.55206	0.090027	-0.11627	-0.023956	-0.023193	-0.091553	0.85892	-0.12817	0.063477	0.063171	0.066681	-0.10117	-0.027466	-0.006256	-0.077667	-0.004425	-0.41885	-0.064697	0.006104	-0.010986
17.739	0.007782	-0.022278	-0.06546	0.020294	-0.010071	-0.095825	0.15671	0.006561	0.037231	0.13626	-0.098419	0.006409	0.1471	0.1535	-0.13351	-0.038757	-0.047302	-0.086975	0.93307	-0.12329	0.062866	0.036469	-0.012817	-0.091248	-0.036163	-0.002136	-0.13886	-0.004425	-0.56656	-0.12344	0.00061	-0.005493
